<svg preserveAspectRatio="none" overflow="visible" style="display: block;" width="9" height="13.5" viewBox="0 0 9 13.5" fill="none" xmlns="http://www.w3.org/2000/svg">
<g id="figma">
<path id="vector" fill-rule="evenodd" clip-rule="evenodd" d="M4.5 6.75C4.5 5.50736 5.50736 4.5 6.75 4.5C7.99264 4.5 9 5.50736 9 6.75C9 7.99264 7.99264 9 6.75 9C5.50736 9 4.5 7.99264 4.5 6.75Z" fill="#1ABCFE" style="fill:#1ABCFE;fill:color(display-p3 0.1020 0.7373 0.9961);fill-opacity:1;"/>
<path id="vector_2" fill-rule="evenodd" clip-rule="evenodd" d="M0 11.25C0 10.0074 1.00736 9 2.25 9H4.5V11.25C4.5 12.4926 3.49264 13.5 2.25 13.5C1.00736 13.5 0 12.4926 0 11.25Z" fill="#0ACF83" style="fill:#0ACF83;fill:color(display-p3 0.0392 0.8118 0.5137);fill-opacity:1;"/>
<path id="vector_3" fill-rule="evenodd" clip-rule="evenodd" d="M4.5 0V4.5H6.75C7.99264 4.5 9 3.49264 9 2.25C9 1.00736 7.99264 0 6.75 0H4.5Z" fill="#FF7262" style="fill:#FF7262;fill:color(display-p3 1.0000 0.4471 0.3843);fill-opacity:1;"/>
<path id="vector_4" fill-rule="evenodd" clip-rule="evenodd" d="M0 2.25C0 3.49264 1.00736 4.5 2.25 4.5H4.5V0H2.25C1.00736 0 0 1.00736 0 2.25Z" fill="#F24E1E" style="fill:#F24E1E;fill:color(display-p3 0.9490 0.3059 0.1176);fill-opacity:1;"/>
<path id="vector_5" fill-rule="evenodd" clip-rule="evenodd" d="M0 6.75C0 7.99264 1.00736 9 2.25 9H4.5V4.5H2.25C1.00736 4.5 0 5.50736 0 6.75Z" fill="#A259FF" style="fill:#A259FF;fill:color(display-p3 0.6353 0.3490 1.0000);fill-opacity:1;"/>
</g>
</svg>
